<svg width="88" height="88" viewBox="0 0 88 88" fill="none" xmlns="http://www.w3.org/2000/svg">
<path d="M55 7.33331H7.33334V55H55V7.33331Z" fill="#B5C5C3"/>
<path d="M38.5 16.5C23.32 16.5 11 27.995 11 42.1667C11 48.0517 13.145 53.46 16.7017 57.7867L11 66.9167L23.65 63.745C27.94 66.33 33.0367 67.8333 38.5 67.8333C53.68 67.8333 66 56.3383 66 42.1667C66 27.995 53.68 16.5 38.5 16.5Z" fill="#33404F"/>
<path d="M80.6666 55C80.6666 45.1367 74.7083 36.5933 65.9816 32.3033C67.2466 35.365 67.9616 38.6833 67.9616 42.1667C67.9616 57.3467 54.7616 69.6667 38.5 69.6667C35.4566 69.6667 32.5233 69.2267 29.755 68.42C34.595 75.7533 43.2483 80.6667 53.1666 80.6667C58.63 80.6667 63.7266 79.1633 68.0166 76.5783L80.6666 79.75L74.965 70.62C78.5216 66.2933 80.6666 60.885 80.6666 55Z" fill="#33404F"/>
<path d="M44.5133 41.1583L41.7267 44.11C41.03 44.8616 40.645 45.6316 40.645 46.53V48.6566H35.6583V46.09C35.6583 44.8983 36.2633 43.78 37.125 42.8816L39.8933 39.93C40.9383 38.8483 41.1217 37.9133 41.1217 36.465C41.1217 35.1633 40.9383 34.265 40.1867 33.5866C39.6733 33.1466 39.05 32.8716 38.17 32.8716C37.3267 32.8716 36.6667 33.0916 36.1533 33.55C35.31 34.3016 35.255 35.42 35.255 36.465H30.25C30.25 34.2283 30.8183 32.3216 32.4683 31.0933C33.7883 30.1216 35.585 29.3333 38.115 29.3333C40.6083 29.3333 42.5333 29.9383 43.8533 31.02C45.5033 32.3216 46.1083 33.9716 46.1083 36.575C46.1083 38.6283 45.65 39.9666 44.5133 41.1583ZM35.2367 56.1183V51.535H41.0667V56.1183H35.2367Z" fill="white"/>
</svg>
