<svg width="64" height="64" viewBox="0 0 64 64" fill="none" xmlns="http://www.w3.org/2000/svg">
<path d="M52.5466 43.6135L48.8 41.8402L48.84 27.4668C48.84 20.3468 44.3733 14.2668 38.0933 11.8535V11.2002C38.08 7.96016 35.36 5.3335 32 5.3335C28.64 5.3335 25.92 7.96016 25.92 11.2002V11.9068C19.7333 14.3735 15.3333 20.4135 15.3333 27.4668L15.2933 41.8402L11.4666 43.6002C10.1866 44.0935 9.33331 45.3335 9.33331 46.7068V50.1468C9.33331 51.9868 10.8266 53.4802 12.6666 53.4802H25.32C25.9733 56.5602 28.72 58.8935 32 58.8935C35.28 58.8935 38.0266 56.5735 38.68 53.4802H51.3333C53.1733 53.4802 54.6666 51.9868 54.6666 50.1468V46.7068C54.6666 45.3335 53.8133 44.1068 52.5466 43.6135ZM32 9.3335C32.92 9.3335 33.6933 9.86683 33.9733 10.6002C33.4266 10.5335 32.88 10.5068 32.3466 10.4935C31.5866 10.4935 30.8133 10.5202 30.04 10.6002C30.3066 9.86683 31.08 9.3335 32 9.3335ZM32 54.8935C30.96 54.8935 30.0533 54.3202 29.56 53.4802H34.44C33.9466 54.3202 33.04 54.8935 32 54.8935ZM50.6666 49.4802H13.3333V47.1468L17.16 45.3735C18.44 44.8802 19.2933 43.6535 19.2933 42.2668L19.3333 27.4668C19.3333 20.4402 25.0533 14.7202 32.08 14.7202C39.1066 14.7202 44.8266 20.4402 44.8266 27.4668L44.7866 42.2668C44.7866 43.6535 45.6266 44.8802 46.9066 45.3868L50.6666 47.1468V49.4802Z" fill="white"/>
<path d="M30.6667 18.0537C25.7067 18.0537 21.68 22.0804 21.68 27.0404C21.68 28.147 22.5733 29.0404 23.68 29.0404C24.7867 29.0404 25.68 28.147 25.68 27.0404C25.68 24.2937 27.92 22.0537 30.6667 22.0537C31.7733 22.0537 32.6667 21.1604 32.6667 20.0537C32.6667 18.947 31.7733 18.0537 30.6667 18.0537Z" fill="white"/>
</svg>
