<svg width="100" height="31" viewBox="0 0 100 31" fill="none" xmlns="http://www.w3.org/2000/svg">
<path d="M39.902 0.510437L34.8374 30.2313H42.9374L48.0062 0.510437H39.902Z" fill="white"/>
<path d="M28.046 0.543726L20.1127 20.8125L19.2669 17.7521C17.7023 14.0646 13.2606 8.76872 8.04602 5.43122L15.3002 30.2166L23.871 30.2021L36.6273 0.537476L28.046 0.543726Z" fill="white"/>
<path d="M16.1917 2.67081C15.7208 0.860393 14.3563 0.320809 12.6625 0.256226H0.104167L0 0.847893C9.77292 3.21873 16.2396 8.93123 18.9229 15.8L16.1917 2.67081Z" fill="white"/>
<path d="M64.4229 6.20833C67.0729 6.16667 68.9937 6.74583 70.4854 7.34583L71.2166 7.68958L72.3125 1.24791C70.7083 0.645831 68.1937 0 65.0562 0C57.0521 0 51.4104 4.03125 51.3666 9.80833C51.3146 14.0771 55.3854 16.4604 58.4604 17.8833C61.6166 19.3417 62.675 20.2688 62.6604 21.5708C62.6354 23.5604 60.1437 24.4729 57.8166 24.4729C54.5729 24.4729 52.85 24.025 50.1896 22.9167L49.1458 22.4417L48.0062 29.0937C49.9021 29.925 53.4 30.6396 57.0312 30.6771C65.5458 30.6771 71.0791 26.6937 71.1375 20.5208C71.1729 17.1437 69.0125 14.5667 64.3312 12.4521C61.4979 11.0729 59.7646 10.1562 59.7812 8.76458C59.7812 7.52916 61.2521 6.20833 64.4229 6.20833Z" fill="white"/>
<path d="M93.1001 0.543762H86.8418C84.898 0.543762 83.4522 1.07293 82.598 3.01043L70.5709 30.2479H79.0772C79.0772 30.2479 80.4647 26.5854 80.7793 25.7833C81.7105 25.7833 89.9751 25.7958 91.1522 25.7958C91.3938 26.8333 92.1397 30.2479 92.1397 30.2479H99.6543L93.1001 0.543762ZM83.1105 19.7C83.7772 17.9938 86.3376 11.3938 86.3376 11.3938C86.2938 11.475 86.998 9.67501 87.4168 8.55626L87.9626 11.1188C87.9626 11.1188 89.5147 18.2146 89.8397 19.7H83.1105Z" fill="white"/>
</svg>
